# xmcd
#
# Track frame offsets: 
#        150
#        14961
#        30467
#        44970
#        57545
#        70505
#        83847
#        107801
#        122918
#        147737
#        165237
#        181419
#        189941
#        209171
#        224079
#
# Disc length: 3185 seconds
#
# Revision: 1
# Processed by: cddbd v1.5.2PL0 Copyright (c) Steve Scherf et al.
# Submitted via: ExactAudioCopy v0.95a1
#
DISCID=f00c6f0f
DTITLE=Andreas Sobczyk Quartet - Like it is
DYEAR=2009
DGENRE=Blues
TTITLE0=basement boogie
TTITLE1=chick a boo
TTITLE2=Munson street braekedouwn
TTITLE3=your mind is on vacation
TTITLE4=like it is
TTITLE5=joy ride
TTITLE6=slow freight
TTITLE7=swingtime in the rockies
TTITLE8=doodlin
TTITLE9=boogie woogie stomp
TTITLE10=old time shuffle
TTITLE11=boom box
TTITLE12=these foolish things
TTITLE13=st.louis blues
TTITLE14=penthouse serenade
EXTD=
EXTT0=
EXTT1=
EXTT2=
EXTT3=
EXTT4=
EXTT5=
EXTT6=
EXTT7=
EXTT8=
EXTT9=
EXTT10=
EXTT11=
EXTT12=
EXTT13=
EXTT14=
PLAYORDER=
